<svg aria-hidden="true" style="width:0;height:0;position:absolute;overflow:hidden" xmlns="http://www.w3.org/2000/svg"><defs><symbol id="icon-logotype" viewBox="0 0 41 32"><path fill="#ffe550" style="fill:var(--color1,#ffe550)" d="M14.121 6.486c1.014-1.989 3.864-1.989 4.878 0l1.263 2.476a2.738 2.738 0 0 0 2.008 1.458l2.759.439c2.203.351 3.082 3.042 1.508 4.62l-1.986 1.991a2.728 2.728 0 0 0-.764 2.349l.436 2.769c.347 2.202-1.957 3.868-3.947 2.854l-2.472-1.259a2.744 2.744 0 0 0-2.489 0l-2.472 1.259c-1.991 1.014-4.295-.652-3.947-2.854l.436-2.769a2.726 2.726 0 0 0-.764-2.349l-1.986-1.991c-1.574-1.577-.695-4.269 1.508-4.62l2.759-.439a2.738 2.738 0 0 0 2.008-1.458l1.263-2.476z"/><path fill="#2c2c2c" style="fill:var(--color2,#2c2c2c)" d="m1.118 20.356-.021.005c.003.074-.001.374-.012.9-.003.524-.005.869-.003 1.033 0 .157-.004.285-.01.384l.001.336c-.002.12-.008.219-.02.296l-.019.206c-.014.13-.042.201-.085.211-.092.022-.236-.049-.432-.212-.198-.17-.312-.319-.342-.446s-.037-1.061-.021-2.8c.023-1.741-.022-2.885-.137-3.434a.421.421 0 0 1 .014-.273c.036-.166.22-.321.553-.467.34-.148.847-.301 1.522-.461.682-.161 1.222-.252 1.623-.272.407-.022.626.031.656.159.02.085-.026.159-.138.223s-.212.117-.299.161l-.35.139c-.146.049-.281.096-.405.141a10.6 10.6 0 0 0-.49.161c-.194.068-.373.133-.539.195-.167.055-.392.134-.675.238s-.466.17-.549.197c.012.02.023.051.033.093.079.333.121 1.131.127 2.393.445-.083.915-.205 1.409-.367.501-.163.809-.259.922-.286.27-.064.418-.039.445.074.052.22-.213.477-.796.772a8.743 8.743 0 0 1-1.96.699zM8.071 18.397a2.015 2.015 0 0 0-.278-.652c-.13-.201-.281-.334-.454-.397-.458.251-.791.729-.999 1.437-.202.699-.239 1.32-.11 1.866s.344.853.646.924c.488-.22.839-.67 1.053-1.349.22-.688.267-1.297.141-1.828zm-2.779.758a4.08 4.08 0 0 1 .648-1.589c.319-.457.688-.735 1.107-.834.426-.101.824-.004 1.193.29.368.287.613.689.735 1.206.121.51.12 1.063-.001 1.661a3.793 3.793 0 0 1-.719 1.573c-.351.45-.771.732-1.261.848-.362.086-.703-.009-1.023-.285s-.54-.669-.661-1.179c-.122-.517-.128-1.08-.017-1.69zM12.896 17.255a2.015 2.015 0 0 0-.278-.652c-.13-.201-.281-.334-.454-.397-.458.251-.791.729-.999 1.437-.202.699-.239 1.32-.11 1.866s.344.853.646.924c.488-.22.839-.67 1.053-1.349.22-.688.267-1.297.141-1.828zm-2.778.758a4.08 4.08 0 0 1 .648-1.589c.319-.457.688-.735 1.107-.834.426-.101.824-.004 1.193.29.368.287.613.689.735 1.206.121.51.12 1.064-.001 1.661a3.793 3.793 0 0 1-.719 1.573c-.351.45-.771.732-1.261.848-.362.086-.703-.009-1.023-.285s-.54-.669-.661-1.179c-.122-.517-.128-1.08-.017-1.69zM17.933 11.014c.114-.027.277.047.491.22.219.165.35.34.394.524s.079.729.106 1.635c.025.899.029 1.837.013 2.813-.022 2.189-.115 3.303-.278 3.342-.099.023-.224-.011-.373-.102-.144-.101-.227-.197-.248-.289s-.04-.282-.056-.57c-.528.873-1.052 1.371-1.57 1.493-.312.074-.63-.001-.953-.223-.315-.225-.509-.489-.581-.794-.104-.439-.11-.987-.018-1.645.097-.666.311-1.3.641-1.902s.747-.962 1.251-1.081c.504-.119.927.099 1.268.654.007-1.587-.075-2.821-.245-3.7-.05-.213.003-.337.159-.374zm.062 5.494c-.09-.382-.234-.689-.431-.919-.19-.232-.377-.326-.562-.282-.305.072-.573.334-.804.785s-.384.944-.46 1.478c-.071.525-.064.965.02 1.319.03.128.101.219.211.275s.23.069.358.039c.277-.066.603-.352.978-.86a3.562 3.562 0 0 0 .701-1.647l.002-.135-.013-.053zM24.793 15.864c.137.581-.01 1.132-.441 1.653a3.04 3.04 0 0 1-1.672 1.013c-.674.16-1.273.118-1.795-.125-.524-.25-.823-.531-.896-.842-.05-.212-.011-.334.116-.364.114-.027.377.09.792.351.156.09.353.163.592.219.245.054.488.053.73-.004a2.394 2.394 0 0 0 1.23-.695c.33-.347.46-.67.39-.967-.045-.191-.231-.405-.557-.642s-.676-.45-1.05-.638c-.369-.197-.717-.417-1.045-.661s-.512-.455-.554-.632c-.042-.177-.051-.373-.027-.588s.068-.379.131-.491c.205-.37.568-.752 1.09-1.144.529-.394.992-.639 1.39-.733.206-.049.396-.023.57.078s.278.226.313.375c.017.071-.044.145-.183.223s-.353.188-.641.331a5.218 5.218 0 0 0-.744.423c-.743.505-1.08.902-1.011 1.193.037.156.555.493 1.555 1.012a5.28 5.28 0 0 1 1.091.763c.348.299.557.597.628.895zM27.238 16.396c.032.135.126.183.282.146.27-.064.579-.215.927-.455.354-.248.552-.377.594-.387.128-.03.208.022.239.156.049.205-.108.493-.471.863-.355.368-.707.594-1.055.676-.341.081-.647.056-.917-.075-.272-.137-.432-.305-.479-.504s-.064-.46-.051-.785c.012-.332.036-.768.073-1.308.043-.549.071-1 .084-1.355-.315.157-.53.249-.643.276s-.241-.003-.381-.089c-.135-.095-.215-.196-.24-.302-.04-.17.383-.442 1.269-.816a7.588 7.588 0 0 0-.178-1.607c-.05-.213-.004-.335.138-.369.121-.029.288.014.503.128.213.107.342.256.387.447s.064.542.058 1.052c.396-.131.715-.225.957-.282.426-.101.661-.059.704.125.025.106-.071.223-.289.349-.21.125-.667.349-1.371.672-.017.595-.053 1.28-.11 2.057-.058.769-.069 1.232-.032 1.387zM32.002 10.826c.319-.076.653.018.999.28.345.255.549.513.611.775.06.255.033.538-.08.849.11.086.175.168.193.246.047.198.081.549.103 1.053.029.502.05.83.064.983a3.4 3.4 0 0 1 .05.639c.013.184-.03.287-.129.311-.128.03-.26-.054-.397-.254-.132-.208-.246-.488-.344-.838-.443.95-.934 1.489-1.473 1.616-.327.077-.682.016-1.067-.185-.379-.209-.604-.463-.675-.76-.101-.425-.068-.986.097-1.683.163-.704.436-1.36.817-1.966s.792-.962 1.232-1.066zm.932 1.754c-.156-.659-.365-.957-.628-.895-.277.066-.553.34-.828.824-.277.477-.485.994-.623 1.55s-.173.98-.105 1.27c.028.12.102.208.219.262a.609.609 0 0 0 .377.023c.334-.079.657-.391.971-.937.312-.552.473-1.17.484-1.853-.004-.111.041-.189.136-.234l-.002-.011z"/><path fill="#bbf330" style="fill:var(--color3,#bbf330)" d="M30.75 19.975a.917.917 0 0 0-.644.603c-1.907 5.652-7.247 9.717-13.529 9.717a14.22 14.22 0 0 1-9.835-3.933.922.922 0 0 0-.853-.234c-.64.159-.883.932-.409 1.39a15.924 15.924 0 0 0 11.097 4.483c7.079 0 13.084-4.605 15.186-10.986.206-.626-.372-1.198-1.013-1.04zM1.865 14.148a.908.908 0 0 0 .668-.725C3.745 6.754 9.577 1.705 16.578 1.705c4.553 0 8.612 2.135 11.227 5.463a.91.91 0 0 0 .93.33c.585-.145.85-.823.481-1.298C26.291 2.428 21.718 0 16.578 0 8.695 0 2.145 5.71.831 13.224c-.104.593.448 1.07 1.034.925zM40.615 5.331c-3.778 7.241-5.437 2.465-10.755 5.271.532-8.406 6.165-3.291 10.755-5.271z"/></symbol><symbol id="icon-up" viewBox="0 0 20 32"><path d="m10.186 5.414-6.361 6.361A2.243 2.243 0 1 1 .653 8.603L8.726.538l.087-.071L8.9.404l.095-.063.095-.055.11-.055.087-.039.205-.079.095-.032.055-.016.103-.024.11-.016.103-.016.11-.008h.221l.11.008.103.016.11.016.103.024.118.032.095.032.189.079.118.055.079.047.189.126.174.142.079.071 7.947 7.955a2.243 2.243 0 1 1-3.172 3.172L10.17 5.415z"/><path d="M10.186 15.199 3.825 21.56a2.243 2.243 0 1 1-3.172-3.172l8.073-8.065.087-.071.087-.063.095-.063.095-.055.11-.055.087-.039.205-.079.095-.032.055-.016.103-.024.11-.016.103-.016.11-.008h.221l.11.008.103.016.11.016.103.024.118.032.095.032.189.079.118.055.079.047.189.126.174.142.079.071 7.947 7.955a2.243 2.243 0 1 1-3.172 3.172L10.17 15.2z"/><path d="m10.186 24.984-6.361 6.361a2.243 2.243 0 1 1-3.172-3.172l8.073-8.065.087-.071.087-.063.095-.063.095-.055.11-.055.087-.039.205-.079.095-.032.055-.016.103-.024.11-.016.103-.016.11-.008h.221l.11.008.103.016.11.016.103.024.118.032.095.032.189.079.118.055.079.047.189.126.174.142.079.071 7.947 7.955a2.243 2.243 0 1 1-3.172 3.172l-6.361-6.361z"/></symbol><symbol id="icon-arrow-left" viewBox="0 0 32 32"><path d="m12.586 27.414-10-10a2 2 0 0 1 0-2.828l10-10a2 2 0 1 1 2.828 2.828L8.828 14H28a2 2 0 1 1 0 4H8.828l6.586 6.586c.39.39.586.902.586 1.414s-.195 1.024-.586 1.414a2 2 0 0 1-2.828 0z"/></symbol><symbol id="icon-arrow-right" viewBox="0 0 32 32"><path d="m19.414 27.414 10-10a2 2 0 0 0 0-2.828l-10-10a2 2 0 1 0-2.828 2.828L23.172 14H4a2 2 0 1 0 0 4h19.172l-6.586 6.586c-.39.39-.586.902-.586 1.414s.195 1.024.586 1.414a2 2 0 0 0 2.828 0z"/></symbol><symbol id="icon-menu" viewBox="0 0 32 32"><path d="M6.4 11.733V9.6h19.2v2.133H6.4zm0 5.334h19.2v-2.133H6.4v2.133zm0 5.333h19.2v-2.133H6.4V22.4z"/></symbol><symbol id="icon-close" viewBox="0 0 32 32"><path d="M23.733 10.304 22.229 8.8l-5.963 5.963L10.303 8.8l-1.504 1.504 5.963 5.963-5.963 5.963 1.504 1.504 5.963-5.963 5.963 5.963 1.504-1.504-5.963-5.963 5.963-5.963z"/></symbol></defs></svg>